<svg width="111" height="111" viewBox="0 0 111 111" fill="none" xmlns="http://www.w3.org/2000/svg">
<path d="M83.8017 24.5476H83.805V7.41591C75.8496 11.9791 73.7628 18.315 73.7628 18.315C68.1895 15.8086 62.0079 14.4145 55.5 14.4145C48.9843 14.4145 42.7949 15.812 37.215 18.325C37.215 18.325 35.1504 11.9791 27.195 7.41591V24.0348V35.3202C27.195 35.3202 27.1484 39.9911 30.1554 45.2181C32.2289 48.8233 37.4703 53.9227 40.5228 56.741C46.3003 58.5381 51.8081 61.2565 56.8997 64.8506C58.9388 66.2892 60.878 67.8998 62.7539 69.4571C65.7176 71.918 68.7823 74.4621 72.2088 76.2814C78.4271 79.5837 86.1482 79.789 96.2969 76.9041C98.4559 72.0357 99.7735 66.7221 100.034 61.1455C100.726 46.4035 94.2546 33.1435 83.8017 24.5476ZM48.5714 45.7042C48.1485 46.9641 45.9218 47.3526 43.5975 46.5723C41.2731 45.7919 39.7302 44.1392 40.1531 42.8804C40.5761 41.6206 42.8027 41.2321 45.1271 42.0124C47.4514 42.7916 48.9932 44.4444 48.5714 45.7042ZM58.9255 55.7209L58.0619 57.8365C57.2394 59.8512 54.3856 59.8512 53.5631 57.8365L52.6995 55.7209C52.4797 55.1825 52.876 54.5942 53.4565 54.5942H55.8119H58.1673C58.749 54.5942 59.1441 55.1825 58.9255 55.7209ZM67.4036 46.5723C65.0793 47.3526 62.8515 46.9641 62.4297 45.7042C62.0068 44.4455 63.5497 42.7916 65.8741 42.0124C68.1984 41.2321 70.4262 41.6206 70.848 42.8804C71.2698 44.1392 69.728 45.7919 67.4036 46.5723Z" fill="#4F46E5"/>
<path d="M71.1688 78.2417C67.5402 76.3147 64.3867 73.6962 61.3364 71.1643C59.4938 69.6347 57.5879 68.0519 55.6221 66.6633C50.6948 63.1867 45.3668 60.5605 39.7802 58.8322L10.9146 58.9998C10.9146 84.0614 31.5928 104.294 56.8198 103.565C73.3088 103.089 87.7166 93.442 95.0127 79.5648C91.5095 80.4639 87.6389 81.1488 83.6951 81.1488C79.4727 81.1488 75.1736 80.3684 71.1688 78.2417ZM33.8539 66.3269L25.5045 80.6071C24.6531 82.0623 22.5774 82.11 21.6394 80.7103C18.2484 75.6509 16.2715 69.5648 16.2715 63.0169L31.8792 62.9115C33.6385 62.8981 34.7419 64.8073 33.8539 66.3269Z" fill="#4F46E5"/>
</svg>
